MeshGeometry
1
3
450
1026
13
1
-0.001303397 0.08838622 0.1036307
0.001888702 0.0821062 0.1015083
-0.0003842936 0.08542017 0.09905291
-0.002092734 0.08959322 0.102861
-0.003726349 0.08959322 0.1028003
-0.002092734 0.08959322 0.102861
-0.0003842936 0.08542017 0.09905291
-0.0051475 0.08542017 0.09887594
0.0007896714 0.08138951 0.09499419
-0.006017053 0.08138951 0.09474129
-0.003726349 0.08959322 0.1028003
-0.0051475 0.08542017 0.09887594
-0.007596433 0.0821062 0.1011559
-0.004570628 0.08838622 0.1035094
-0.00378129 0.08717921 0.1042791
-0.004570628 0.08838622 0.1035094
-0.007596433 0.0821062 0.1011559
-0.00530262 0.07878188 0.1035559
-0.00378129 0.08717921 0.1042791
-0.00530262 0.07878188 0.1035559
-0.0005768745 0.07878188 0.1037315
-0.002147674 0.08717921 0.1043398
-0.001303397 0.08838622 0.1036307
-0.002147674 0.08717921 0.1043398
-0.0005768745 0.07878188 0.1037315
0.001888702 0.0821062 0.1015083
0.001888702 0.0821062 0.1015083
0.00407858 0.07636032 0.09820135
0.0007896714 0.08138951 0.09499419
-0.0003842936 0.08542017 0.09905291
-0.0051475 0.08542017 0.09887594
-0.006017053 0.08138951 0.09474129
-0.00953488 0.07636032 0.09769556
-0.007596433 0.0821062 0.1011559
-0.00530262 0.07878188 0.1035559
-0.007596433 0.0821062 0.1011559
-0.00953488 0.07636032 0.09769556
-0.006245971 0.07133114 0.1009027
-0.00530262 0.07878188 0.1035559
-0.006245971 0.07133114 0.1009027
0.0005607526 0.07133114 0.1011556
-0.0005768745 0.07878188 0.1037315
0.001888702 0.0821062 0.1015083
-0.0005768745 0.07878188 0.1037315
0.0005607526 0.07133114 0.1011556
0.00407858 0.07636032 0.09820135
0.0007896714 0.08138951 0.09499419
0.00407858 0.07636032 0.09820135
0.004523301 0.05630785 0.07468665
0.001418882 0.06106668 0.071692
0.00584299 0.03691614 0.05071163
0.002554082 0.04194532 0.04750447
-0.006017053 0.08138951 0.09474129
0.0007896714 0.08138951 0.09499419
0.001418882 0.06106668 0.071692
-0.004915398 0.06106668 0.07145666
-0.00953488 0.07636032 0.09769556
-0.006017053 0.08138951 0.09474129
-0.004915398 0.06106668 0.07145666
-0.008233475 0.05630785 0.07421269
-0.004252641 0.04194532 0.04725157
-0.007770468 0.03691614 0.05020585
-0.006245971 0.07133114 0.1009027
-0.00953488 0.07636032 0.09769556
-0.008233475 0.05630785 0.07421269
-0.005171855 0.05150993 0.07725752
-0.007770468 0.03691614 0.05020585
-0.00448156 0.03188694 0.05341299
0.0005607526 0.07133114 0.1011556
-0.006245971 0.07133114 0.1009027
-0.005171855 0.05150993 0.07725752
0.001244181 0.05150993 0.0774959
-0.00448156 0.03188694 0.05341299
0.002325164 0.03188694 0.05366588
0.00407858 0.07636032 0.09820135
0.0005607526 0.07133114 0.1011556
0.001244181 0.05150993 0.0774959
0.004523301 0.05630785 0.07468665
0.002325164 0.03188694 0.05366588
0.00584299 0.03691614 0.05071163
-0.004915398 0.06106668 0.07145666
0.001418882 0.06106668 0.071692
0.002554082 0.04194532 0.04750447
-0.004252641 0.04194532 0.04725157
0.002554082 0.04194532 0.04750447
0.00584299 0.03691614 0.05071163
0.01251489 0.02113363 0.03616067
0.006233527 0.03150341 0.03136675
-0.004252641 0.04194532 0.04725157
0.002554082 0.04194532 0.04750447
0.006233527 0.03150341 0.03136675
-0.006724449 0.03150341 0.03088532
-0.007770468 0.03691614 0.05020585
-0.004252641 0.04194532 0.04725157
-0.006724449 0.03150341 0.03088532
-0.01334422 0.02113363 0.03519991
-0.00448156 0.03188694 0.05341299
-0.007770468 0.03691614 0.05020585
-0.01334422 0.02113363 0.03519991
-0.007038346 0.01083054 0.03998482
-0.01977021 0.007961583 0.01864038
-0.01000966 -0.008290702 0.02493244
0.002325164 0.03188694 0.05366588
-0.00448156 0.03188694 0.05341299
-0.007038346 0.01083054 0.03998482
0.005871332 0.01083054 0.04046446
0.00584299 0.03691614 0.05071163
0.002325164 0.03188694 0.05366588
0.005871332 0.01083054 0.04046446
0.01251489 0.02113363 0.03616067
0.009951419 -0.008290702 0.02567406
0.02015195 0.007961583 0.02012363
0.006233527 0.03150341 0.03136675
0.01251489 0.02113363 0.03616067
0.02015195 0.007961583 0.02012363
0.01039141 0.02421387 0.01383158
0.02708032 -0.00203714 -0.009264878
0.01443599 0.01942255 -0.01599026
0.03080173 -0.0064256 -0.04055839
0.01682769 0.01755073 -0.04642313
0.02970287 -0.002096224 -0.06554013
0.01668211 0.02011493 -0.07085274
-0.006724449 0.03150341 0.03088532
0.006233527 0.03150341 0.03136675
0.01039141 0.02421387 0.01383158
-0.009569671 0.02421387 0.01308996
-0.01334422 0.02113363 0.03519991
-0.006724449 0.03150341 0.03088532
-0.009569671 0.02421387 0.01308996
-0.01977021 0.007961583 0.01864038
-0.01139018 0.01942255 -0.0169498
-0.02449871 -0.00203714 -0.01118122
-0.01151704 0.01755073 -0.04747623
-0.02588773 -0.0064256 -0.04266461
-0.009559072 0.02011493 -0.07182769
-0.02293814 -0.002096224 -0.06749593
0.005871332 0.01083054 0.04046446
-0.007038346 0.01083054 0.03998482
-0.01000966 -0.008290702 0.02493244
0.009951419 -0.008290702 0.02567406
-0.009569671 0.02421387 0.01308996
0.01039141 0.02421387 0.01383158
0.01443599 0.01942255 -0.01599026
-0.01139018 0.01942255 -0.0169498
-0.01000966 -0.008290702 0.02493244
-0.01977021 0.007961583 0.01864038
-0.02449871 -0.00203714 -0.01118122
-0.01182011 -0.02345226 -0.004489648
0.009951419 -0.008290702 0.02567406
-0.01000966 -0.008290702 0.02493244
-0.01182011 -0.02345226 -0.004489648
0.01394012 -0.02345226 -0.003532564
0.02015195 0.007961583 0.02012363
0.009951419 -0.008290702 0.02567406
0.01394012 -0.02345226 -0.003532564
0.02708032 -0.00203714 -0.009264878
-0.01139018 0.01942255 -0.0169498
0.01443599 0.01942255 -0.01599026
0.01682769 0.01755073 -0.04642313
-0.01151704 0.01755073 -0.04747623
-0.01182011 -0.02345226 -0.004489648
-0.02449871 -0.00203714 -0.01118122
-0.02588773 -0.0064256 -0.04266461
-0.0119137 -0.03040192 -0.03679987
0.01394012 -0.02345226 -0.003532564
-0.01182011 -0.02345226 -0.004489648
-0.0119137 -0.03040192 -0.03679987
0.01643103 -0.03040192 -0.03574676
0.02708032 -0.00203714 -0.009264878
0.01394012 -0.02345226 -0.003532564
0.01643103 -0.03040192 -0.03574676
0.03080173 -0.0064256 -0.04055839
-0.01151704 0.01755073 -0.04747623
0.01682769 0.01755073 -0.04642313
0.01668211 0.02011493 -0.07085274
-0.009559072 0.02011493 -0.07182769
-0.0119137 -0.03040192 -0.03679987
-0.02588773 -0.0064256 -0.04266461
-0.02293814 -0.002096224 -0.06749593
-0.009993712 -0.02443904 -0.06216154
0.01643103 -0.03040192 -0.03574676
-0.0119137 -0.03040192 -0.03679987
-0.009993712 -0.02443904 -0.06216154
0.01639828 -0.02443904 -0.06118098
0.03080173 -0.0064256 -0.04055839
0.01643103 -0.03040192 -0.03574676
0.01639828 -0.02443904 -0.06118098
0.02970287 -0.002096224 -0.06554013
0.01668211 0.02011493 -0.07085274
0.02970287 -0.002096224 -0.06554013
0.02423557 0.001157731 -0.08978834
0.0143947 0.01804247 -0.09391844
-0.009559072 0.02011493 -0.07182769
0.01668211 0.02011493 -0.07085274
0.0143947 0.01804247 -0.09391844
-0.005566377 0.01804247 -0.09466006
-0.02293814 -0.002096224 -0.06749593
-0.009559072 0.02011493 -0.07182769
-0.005566377 0.01804247 -0.09466006
-0.01568659 0.001157731 -0.09127159
-0.009993712 -0.02443904 -0.06216154
-0.02293814 -0.002096224 -0.06749593
-0.01568659 0.001157731 -0.09127159
-0.005845719 -0.01572701 -0.08714149
0.01639828 -0.02443904 -0.06118098
-0.009993712 -0.02443904 -0.06216154
-0.005845719 -0.01572701 -0.08714149
0.01411536 -0.01572701 -0.08639987
0.02970287 -0.002096224 -0.06554013
0.01639828 -0.02443904 -0.06118098
0.01411536 -0.01572701 -0.08639987
0.02423557 0.001157731 -0.08978834
0.0143947 0.01804247 -0.09391844
0.02423557 0.001157731 -0.08978834
0.01561275 -0.00694296 -0.1048247
0.01018147 0.001840197 -0.1077406
-0.005566377 0.01804247 -0.09466006
0.0143947 0.01804247 -0.09391844
0.01018147 0.001840197 -0.1077406
-0.0003390907 0.001840197 -0.1081315
-0.01568659 0.001157731 -0.09127159
-0.005566377 0.01804247 -0.09466006
-0.0003390907 0.001840197 -0.1081315
-0.005971777 -0.00694296 -0.1056266
-0.005845719 -0.01572701 -0.08714149
-0.01568659 0.001157731 -0.09127159
-0.005971777 -0.00694296 -0.1056266
-0.0008337137 -0.01619801 -0.1025351
0.005280728 -0.01852662 -0.1176671
0.005281713 -0.01852831 -0.1176667
0.01411536 -0.01572701 -0.08639987
-0.005845719 -0.01572701 -0.08714149
-0.0008337137 -0.01619801 -0.1025351
0.01025945 -0.01619801 -0.102123
0.02423557 0.001157731 -0.08978834
0.01411536 -0.01572701 -0.08639987
0.01025945 -0.01619801 -0.102123
0.01561275 -0.00694296 -0.1048247
0.00528371 -0.01852831 -0.1176666
0.005284723 -0.01852662 -0.1176669
0.01018147 0.001840197 -0.1077406
0.01561275 -0.00694296 -0.1048247
0.005284723 -0.01852662 -0.1176669
0.005283738 -0.01852494 -0.1176673
-0.0003390907 0.001840197 -0.1081315
0.01018147 0.001840197 -0.1077406
0.005283738 -0.01852494 -0.1176673
0.005281741 -0.01852494 -0.1176674
-0.005971777 -0.00694296 -0.1056266
-0.0003390907 0.001840197 -0.1081315
0.005281741 -0.01852494 -0.1176674
0.005280728 -0.01852662 -0.1176671
0.01025945 -0.01619801 -0.102123
-0.0008337137 -0.01619801 -0.1025351
0.005281713 -0.01852831 -0.1176667
0.00528371 -0.01852831 -0.1176666
-0.002147674 0.08717921 0.1043398
-0.002692214 0.08717921 0.1043195
-0.001303397 0.08838622 0.1036307
-0.001829623 0.08919089 0.1031176
-0.004289203 0.08878855 0.103273
-0.00378129 0.08717921 0.1042791
-0.004570628 0.08838622 0.1035094
-0.003726349 0.08959322 0.1028003
-0.002092734 0.08959322 0.102861
0.005284723 -0.01852662 -0.1176669
0.005283044 -0.01852831 -0.1176666
0.00528371 -0.01852831 -0.1176666
0.005284066 -0.01852549 -0.1176672
0.005281066 -0.01852606 -0.1176672
0.005281713 -0.01852831 -0.1176667
0.005280728 -0.01852662 -0.1176671
0.005281741 -0.01852494 -0.1176674
0.005283738 -0.01852494 -0.1176673
0.1192501 -0.05091924 0.0309472
0.1191174 -0.05130271 0.0309963
0.09894185 -0.04233986 0.008394768
0.09976622 -0.03995812 0.008089812
0.0797065 -0.03282569 -0.01704833
0.08139858 -0.02793701 -0.01767427
0.05941366 -0.02328358 -0.03854913
0.06185384 -0.01623355 -0.03945181
0.0356584 -0.01463388 -0.04827527
0.03833599 -0.006897956 -0.04926578
0.01036865 -0.00647117 -0.05288846
0.01304623 0.00126475 -0.05387896
0.01036865 -0.00647117 -0.05288846
0.00933611 0.006292089 -0.02464433
0.01304623 0.00126475 -0.05387896
0.006658528 -0.001443831 -0.02365383
0.002948406 0.003583507 0.005580796
0.005625989 0.01131943 0.004590295
0.001093346 0.006097176 0.02019811
0.003770928 0.0138331 0.01920761
0.001093346 0.006097176 0.02019811
0.02906068 0.005670391 0.0238208
0.003770928 0.0138331 0.01920761
0.0263831 -0.002065529 0.0248113
0.05132979 -0.01304583 0.02744775
0.05362656 -0.006410116 0.02659812
0.0757043 -0.02694915 0.02883324
0.07720006 -0.02262768 0.02827992
0.09975152 -0.04097385 0.03128905
0.1003935 -0.03911904 0.03105156
0.1238573 -0.05304699 0.03577634
0.1238884 -0.05295699 0.03576482
0.1238573 -0.05304699 0.03577634
0.122863 -0.05248084 0.03524174
0.1238884 -0.05295699 0.03576482
0.1228136 -0.05262349 0.03526001
0.1208631 -0.05188153 0.03360068
0.1209521 -0.05162436 0.03356776
0.1191174 -0.05130271 0.0309963
0.1192501 -0.05091924 0.0309472
0.1208631 -0.05188153 0.03360068
0.09894185 -0.04233986 0.008394768
0.1191174 -0.05130271 0.0309963
0.09901641 -0.0415643 0.01873822
0.1228136 -0.05262349 0.03526001
0.07784589 -0.03022092 0.002557362
0.0797065 -0.03282569 -0.01704833
0.0994252 -0.04109632 0.02749169
0.1238573 -0.05304699 0.03577634
0.09975152 -0.04097385 0.03128905
0.0763307 -0.02795447 0.0204962
0.0757043 -0.02694915 0.02883324
0.05282202 -0.01496097 0.0148614
0.05132979 -0.01304583 0.02744775
0.05599865 -0.01899455 -0.01125604
0.05941366 -0.02328358 -0.03854913
0.02823816 -0.004579199 0.01019398
0.0263831 -0.002065529 0.0248113
0.03194828 -0.009606537 -0.01904065
0.0356584 -0.01463388 -0.04827527
0.002948406 0.003583507 0.005580796
0.001093346 0.006097176 0.02019811
0.006658528 -0.001443831 -0.02365383
0.01036865 -0.00647117 -0.05288846
0.1003935 -0.03911904 0.03105156
0.1238884 -0.05295699 0.03576482
0.122863 -0.05248084 0.03524174
0.1001028 -0.03913868 0.02724103
0.07720006 -0.02262768 0.02827992
0.1209521 -0.05162436 0.03356776
0.07786606 -0.02351861 0.01992824
0.05362656 -0.006410116 0.02659812
0.09976656 -0.03939701 0.01846072
0.1192501 -0.05091924 0.0309472
0.09976622 -0.03995812 0.008089812
0.08139858 -0.02793701 -0.01767427
0.07946 -0.02555755 0.001960268
0.06185384 -0.01623355 -0.03945181
0.05838383 -0.01210344 -0.01213837
0.03833599 -0.006897956 -0.04926578
0.05514901 -0.008237954 0.01400059
0.02906068 0.005670391 0.0238208
0.03462586 -0.001870616 -0.02003115
0.01304623 0.00126475 -0.05387896
0.00933611 0.006292089 -0.02464433
0.03091574 0.003156721 0.009203481
0.003770928 0.0138331 0.01920761
0.005625989 0.01131943 0.004590295
-0.118688 -0.05326979 0.03651848
-0.1188585 -0.0529018 0.03646749
-0.1005088 -0.04288002 0.01282825
-0.09945002 -0.04516561 0.01314494
-0.08324191 -0.03252664 -0.01360992
-0.08106861 -0.03721795 -0.0129599
-0.06477457 -0.02190859 -0.0361645
-0.06164043 -0.02867399 -0.03522711
-0.04235059 -0.0113921 -0.04712033
-0.03891153 -0.0188157 -0.04609173
-0.01817064 -0.001010648 -0.05303962
-0.01473158 -0.00843425 -0.05201103
-0.01817064 -0.001010648 -0.05303962
-0.01026038 -0.002354924 -0.02308435
-0.01473158 -0.00843425 -0.05201103
-0.01369944 0.005068678 -0.02411295
-0.005789177 0.003724401 0.00584232
-0.009228235 0.011148 0.004813727
-0.006992635 0.01418767 0.01927706
-0.003553576 0.006764063 0.02030566
-0.006992635 0.01418767 0.01927706
-0.02773353 -0.003617386 0.02622496
-0.003553576 0.006764063 0.02030566
-0.03117259 0.003806216 0.02519636
-0.05488757 -0.009270713 0.02916682
-0.05193762 -0.01563853 0.03004912
-0.07787453 -0.02509546 0.03190333
-0.07595339 -0.02924246 0.03247793
-0.1004865 -0.04096624 0.03569416
-0.09966192 -0.04274617 0.03594078
-0.1232171 -0.05492987 0.04148728
-0.1231771 -0.05501624 0.04149924
-0.1232171 -0.05492987 0.04148728
-0.1221753 -0.05456624 0.04093545
-0.1231771 -0.05501624 0.04149924
-0.1222387 -0.05442935 0.04091648
-0.1203201 -0.05380914 0.03919172
-0.1204345 -0.05356235 0.03915752
-0.118688 -0.05326979 0.03651848
-0.1188585 -0.0529018 0.03646749
-0.1204345 -0.05356235 0.03915752
-0.1005088 -0.04288002 0.01282825
-0.1188585 -0.0529018 0.03646749
-0.1002228 -0.04183312 0.02314281
-0.1222387 -0.05442935 0.04091648
-0.08080675 -0.02924583 0.005829921
-0.08324191 -0.03252664 -0.01360992
-0.1003083 -0.04116381 0.03189091
-0.1232171 -0.05492987 0.04148728
-0.1004865 -0.04096624 0.03569416
-0.07875486 -0.0263754 0.02362755
-0.07787453 -0.02509546 0.03190333
-0.05672705 -0.01164006 0.01670452
-0.05488757 -0.009270713 0.02916682
-0.06061884 -0.01662192 -0.009150851
-0.06477457 -0.02190859 -0.0361645
-0.03340819 0.0007665527 0.01073303
-0.03117259 0.003806216 0.02519636
-0.03787939 -0.005312772 -0.01819365
-0.04235059 -0.0113921 -0.04712033
-0.009228235 0.011148 0.004813727
-0.006992635 0.01418767 0.01927706
-0.01369944 0.005068678 -0.02411295
-0.01817064 -0.001010648 -0.05303962
-0.09966192 -0.04274617 0.03594078
-0.1231771 -0.05501624 0.04149924
-0.1221753 -0.05456624 0.04093545
-0.09943797 -0.04304243 0.0321512
-0.07595339 -0.02924246 0.03247793
-0.1203201 -0.05380914 0.03919172
-0.07678287 -0.03063216 0.02421736
-0.05193762 -0.01563853 0.03004912
-0.09925936 -0.04391292 0.02343099
-0.118688 -0.05326979 0.03651848
-0.09945002 -0.04516561 0.01314494
-0.08106861 -0.03721795 -0.0129599
-0.07873361 -0.03372093 0.006449976
-0.06164043 -0.02867399 -0.03522711
-0.05755535 -0.02323483 -0.008234586
-0.03891153 -0.0188157 -0.04609173
-0.05373828 -0.01809165 0.01759844
-0.02773353 -0.003617386 0.02622496
-0.03444033 -0.01273637 -0.01716506
-0.01473158 -0.00843425 -0.05201103
-0.01026038 -0.002354924 -0.02308435
-0.02996913 -0.00665705 0.01176162
-0.003553576 0.006764063 0.02030566
-0.005789177 0.003724401 0.00584232
2
0.4493986 0.2522011 -0.07317783
0.4493986 0.2522011 -0.07317784
0.4493986 0.2522011 -0.07317783
0.4493986 0.2522011 -0.07317784
0.01417154 0.3538762 -0.381432
0.01417154 0.3538762 -0.381432
0.01417154 0.3538762 -0.381432
0.01417154 0.3538762 -0.381432
0.01354866 0.3711524 -0.3646668
0.01354866 0.3711524 -0.3646668
-0.4427295 0.252201 -0.1063239
-0.4427295 0.252201 -0.1063239
-0.4427295 0.252201 -0.1063239
-0.4427295 0.252201 -0.1063239
-0.3514794 0.02864296 0.3828333
-0.3514795 0.02864296 0.3828333
-0.3514795 0.02864295 0.3828333
-0.3514795 0.02864294 0.3828332
-0.01926452 -0.04116364 0.5185113
-0.01926452 -0.04116364 0.5185113
-0.01926452 -0.04116364 0.5185113
-0.01926452 -0.04116364 0.5185113
0.3221019 0.02864299 0.4078596
0.3221019 0.028643 0.4078596
0.3221019 0.028643 0.4078596
0.3221019 0.028643 0.4078596
0.4539495 0.2332267 -0.102248
0.4539495 0.2332267 -0.102248
0.4539495 0.2332267 -0.102248
0.4539495 0.2332267 -0.102248
-0.4451106 0.2332269 -0.1356514
-0.4451106 0.2332269 -0.1356514
-0.4451106 0.2332269 -0.1356514
-0.4451106 0.2332269 -0.1356514
-0.4074999 -0.05855713 0.3184877
-0.4074999 -0.05855714 0.3184877
-0.4074999 -0.05855716 0.3184877
-0.4074999 -0.05855713 0.3184877
-0.01823358 -0.1724492 0.490763
-0.01823358 -0.1724492 0.490763
-0.01823358 -0.1724492 0.490763
-0.01823358 -0.1724492 0.490763
0.3827432 -0.05855712 0.3478479
0.3827432 -0.05855714 0.347848
0.3827432 -0.05855714 0.347848
0.3827432 -0.05855712 0.3478479
0.4550175 0.1964658 -0.1589961
0.4550175 0.1964658 -0.1589961
0.4550175 0.1964658 -0.1589961
0.4550175 0.1964658 -0.1589961
0.4556578 0.2073064 -0.1425468
0.4556577 0.2073064 -0.1425468
0.01269979 0.3923237 -0.3418192
0.01269979 0.3923237 -0.3418192
0.01269979 0.3923237 -0.3418192
0.01269979 0.3923237 -0.3418192
-0.4419649 0.1964656 -0.1923221
-0.4419649 0.1964656 -0.1923221
-0.4419649 0.1964656 -0.1923221
-0.4419649 0.1964656 -0.1923221
-0.4438239 0.2073065 -0.1759657
-0.4438238 0.2073065 -0.1759657
-0.4567634 -0.201408 0.147382
-0.4567635 -0.201408 0.147382
-0.4567634 -0.201408 0.147382
-0.4567635 -0.201408 0.147382
-0.4566216 -0.198907 0.1511696
-0.4566216 -0.198907 0.1511696
-0.01240748 -0.3990513 0.3339515
-0.01240748 -0.3990513 0.3339515
-0.01240748 -0.3990513 0.3339515
-0.01240748 -0.3990513 0.3339515
-0.01227715 -0.4019648 0.3304437
-0.01227715 -0.4019648 0.3304437
0.4445678 -0.201408 0.1808695
0.4445678 -0.201408 0.1808695
0.4445679 -0.2014079 0.1808696
0.4445678 -0.201408 0.1808696
0.4441453 -0.198907 0.1846362
0.4441452 -0.198907 0.1846362
0.01197691 0.4084832 -0.3223625
0.01197691 0.4084832 -0.3223625
0.01197691 0.4084832 -0.3223625
0.01197691 0.4084832 -0.3223625
0.4526167 0.2497367 -0.0607393
0.4526167 0.2497367 -0.0607393
0.4526167 0.2497367 -0.0607393
0.4526166 0.2497367 -0.06073929
0.01044098 0.4379919 -0.2810225
0.01044098 0.4379919 -0.2810225
0.01044098 0.4379919 -0.2810225
0.01044098 0.4379919 -0.2810225
-0.4468617 0.2497367 -0.09415815
-0.4468616 0.2497367 -0.09415815
-0.4468616 0.2497367 -0.09415814
-0.4468617 0.2497367 -0.09415815
-0.4236456 -0.1205542 0.2773275
-0.4236456 -0.1205543 0.2773275
-0.4236457 -0.1205542 0.2773275
-0.4236456 -0.1205543 0.2773276
-0.4213895 -0.1421307 0.2704611
-0.4213896 -0.1421307 0.2704611
-0.01633029 -0.2783191 0.4395353
-0.01633029 -0.2783191 0.4395353
-0.01633029 -0.2783191 0.4395354
-0.01633029 -0.2783191 0.4395354
0.4018987 -0.1205543 0.3079994
0.4018987 -0.1205543 0.3079994
0.4018987 -0.1205543 0.3079994
0.4018987 -0.1205543 0.3079994
0.4001584 -0.1421306 0.3009845
0.4001584 -0.1421306 0.3009845
0.4468315 0.2668874 -0.005676942
0.4468315 0.2668875 -0.005676941
0.4468315 0.2668874 -0.005676942
0.4468315 0.2668875 -0.005676949
0.4449857 0.2695894 0.01512518
0.4449857 0.2695894 0.01512518
0.4467644 0.2665045 0.01721681
0.4467644 0.2665045 0.01721681
0.4460466 0.2669927 0.02601544
0.4460466 0.2669927 0.02601543
0.007367157 0.4811929 -0.1982895
0.007367157 0.4811929 -0.1982895
0.007367157 0.4811929 -0.1982895
0.007367158 0.4811929 -0.1982896
-0.4451783 0.2668875 -0.03881836
-0.4451783 0.2668875 -0.03881834
-0.4451783 0.2668875 -0.03881835
-0.4451783 0.2668875 -0.03881835
-0.4448813 0.2695895 -0.0179365
-0.4448813 0.2695895 -0.0179365
-0.4468102 0.2665045 -0.01598274
-0.4468103 0.2665045 -0.01598272
-0.4467474 0.2669926 -0.007154994
-0.4467474 0.2669926 -0.007155002
-0.01523123 -0.320352 0.4099539
-0.01523123 -0.320352 0.4099539
-0.01523123 -0.320352 0.4099538
-0.01523123 -0.320352 0.4099538
0.003052607 0.5139647 -0.08216196
0.003052607 0.5139647 -0.08216196
0.003052607 0.5139647 -0.08216196
0.003052607 0.5139647 -0.08216196
-0.4501278 -0.2189699 0.1426769
-0.4501278 -0.2189699 0.1426769
-0.4501278 -0.2189699 0.1426769
-0.4501278 -0.2189699 0.1426769
-0.00887306 -0.4623907 0.2388214
-0.00887306 -0.4623907 0.2388214
-0.008873059 -0.4623907 0.2388214
-0.008873059 -0.4623907 0.2388214
0.4382995 -0.2189698 0.1756851
0.4382995 -0.2189698 0.1756851
0.4382995 -0.2189698 0.1756851
0.4382995 -0.2189698 0.1756851
0.001183745 0.5195219 -0.0318609
0.001183745 0.5195219 -0.0318609
0.001183745 0.5195219 -0.0318609
0.001183745 0.5195219 -0.0318609
-0.4528329 -0.2506567 0.05507372
-0.4528329 -0.2506567 0.05507373
-0.4528329 -0.2506567 0.05507373
-0.4528329 -0.2506567 0.05507373
-0.004066819 -0.5088434 0.1094598
-0.004066819 -0.5088434 0.1094598
-0.004066819 -0.5088434 0.1094598
-0.004066819 -0.5088434 0.1094598
0.4474976 -0.2506568 0.08852426
0.4474976 -0.2506568 0.08852426
0.4474976 -0.2506568 0.08852426
0.4474976 -0.2506568 0.08852426
-0.002019147 0.5176504 0.05434603
-0.002019147 0.5176504 0.05434604
-0.002019147 0.5176504 0.05434603
-0.002019147 0.5176504 0.05434603
-0.4312969 -0.2743688 -0.09810353
-0.4312969 -0.2743688 -0.09810353
-0.4312969 -0.2743688 -0.09810352
-0.4312969 -0.2743688 -0.09810353
0.004414113 -0.5067394 -0.1188074
0.004414113 -0.5067394 -0.1188074
0.004414113 -0.5067394 -0.1188074
0.004414113 -0.5067394 -0.1188074
0.4373875 -0.2743689 -0.06582885
0.4373875 -0.2743689 -0.06582887
0.4373875 -0.2743689 -0.06582885
0.4373875 -0.2743689 -0.06582887
0.4524557 0.2481628 -0.06796027
0.4524557 0.2481628 -0.06796026
0.4524557 0.2481628 -0.06796027
0.4524557 0.2481628 -0.06796027
0.001736929 0.5183927 -0.04675004
0.00173693 0.5183927 -0.04675005
0.001736929 0.5183927 -0.04675004
0.00173693 0.5183927 -0.04675005
-0.4461653 0.2481628 -0.1013472
-0.4461653 0.2481628 -0.1013472
-0.4461653 0.2481628 -0.1013472
-0.4461653 0.2481628 -0.1013472
-0.4090846 -0.2771024 -0.1636567
-0.4090846 -0.2771024 -0.1636567
-0.4090846 -0.2771024 -0.1636567
-0.4090846 -0.2771024 -0.1636567
0.006332966 -0.491757 -0.170454
0.006332967 -0.4917569 -0.170454
0.006332966 -0.491757 -0.170454
0.006332967 -0.4917569 -0.170454
0.4201009 -0.2771024 -0.1328496
0.420101 -0.2771024 -0.1328496
0.4201009 -0.2771024 -0.1328496
0.420101 -0.2771024 -0.1328496
0.394845 0.1516591 -0.3033422
0.394845 0.1516591 -0.3033422
0.394845 0.1516591 -0.3033422
0.394845 0.1516591 -0.3033422
0.01477645 0.3354481 -0.3977132
0.01477645 0.3354481 -0.3977132
0.01477645 0.3354481 -0.3977132
0.01477645 0.3354481 -0.3977132
-0.371247 0.1516592 -0.3318052
-0.371247 0.1516592 -0.3318052
-0.371247 0.1516592 -0.3318052
-0.371247 0.1516592 -0.3318052
-0.4213985 -0.277053 -0.1287806
-0.4213985 -0.277053 -0.1287806
-0.4213985 -0.277053 -0.1287806
-0.4213985 -0.277053 -0.1287806
-0.4218055 -0.276872 -0.1278339
-0.4218055 -0.2768721 -0.1278339
-0.000584357 -0.5202613 0.01572816
-0.0005843578 -0.5202613 0.01572818
-0.0005843578 -0.5202613 0.01572818
-0.0005843578 -0.5202613 0.01572818
0.4297929 -0.2770529 -0.09715585
0.4297929 -0.2770529 -0.09715587
0.4297929 -0.2770529 -0.09715585
0.4297929 -0.2770529 -0.09715587
0.4301284 -0.2768722 -0.09618159
0.4301284 -0.2768722 -0.09618162
0.3531983 0.09550792 -0.3702009
0.3531983 0.09550792 -0.3702009
0.3531983 0.09550792 -0.3702009
0.3531983 0.09550792 -0.3702009
0.01743441 0.2245376 -0.4692531
0.01743441 0.2245376 -0.4692531
0.01743441 0.2245376 -0.4692531
0.01743441 0.2245376 -0.4692531
-0.3247541 0.09550789 -0.3953891
-0.3247541 0.09550789 -0.3953891
-0.3247541 0.0955079 -0.3953891
-0.3247541 0.09550788 -0.3953891
-0.002900866 -0.5146018 0.0780778
-0.002900866 -0.5146018 0.0780778
-0.002900867 -0.5146018 0.07807781
-0.002900867 -0.5146018 0.07807781
0.016476 -0.2720181 -0.4434571
0.01648896 -0.2720225 -0.443454
0.01648896 -0.2720225 -0.443454
0.01648896 -0.2720225 -0.443454
0.01648231 -0.2720278 -0.443451
0.016476 -0.2720181 -0.4434571
0.01647602 -0.2720171 -0.4434577
0.01647579 -0.2720273 -0.4434516
0.01647579 -0.2720273 -0.4434516
-0.01886257 0.1131906 0.5076925
-0.01886257 0.1131906 0.5076925
-0.01886257 0.1131906 0.5076925
-0.016729 0.1131897 0.5077675
-0.01886257 0.1131906 0.5076925
-0.01886257 0.1131906 0.5076925
-0.02171001 0.1131889 0.5075791
-0.01993319 0.1131904 0.5076516
-0.01886257 0.1131906 0.5076925
0.4318218 0.03114225 -0.2889284
0.3730956 -0.1701811 -0.3205582
0.3481873 -0.1653038 -0.3497996
0.4237916 0.1631431 -0.254371
0.3423207 -0.1640811 -0.3561088
0.3423208 -0.1640811 -0.3561087
0.2439574 -0.1404945 -0.4377964
0.2439574 -0.1404945 -0.4377964
0.1106128 -0.1020826 -0.4982605
0.1106128 -0.1020826 -0.4982605
0.06459692 -0.08753098 -0.5090041
0.06459692 -0.08753098 -0.5090041
-0.4880377 0.1575226 -0.08902454
-0.4880377 0.1575226 -0.08902454
-0.4880377 0.1575226 -0.08902454
-0.4880377 0.1575226 -0.08902454
-0.4880377 0.1575226 -0.08902454
-0.4880377 0.1575226 -0.08902454
-0.4880377 0.1575226 -0.08902455
-0.4880377 0.1575226 -0.08902455
-0.06459697 0.08753099 0.5090041
-0.0433576 0.0806128 0.5123878
-0.06459697 0.08753099 0.5090041
-0.0433576 0.0806128 0.5123878
-0.007529139 0.06866091 0.5158958
-0.007529139 0.06866091 0.5158958
-0.002396334 0.06691993 0.5161739
-0.002396348 0.06691993 0.5161739
-0.03248496 0.07702303 0.5137429
-0.03248534 0.07702316 0.5137429
-0.0531357 0.08381334 0.5109515
-0.05313644 0.08381357 0.5109514
0.1829924 -0.1236844 -0.4713125
0.3238634 0.1735869 -0.3686456
0.2967665 0.1780214 -0.3887899
0.2194439 -0.1339034 -0.4525857
0.3437129 -0.1643736 -0.3546298
0.4105087 0.1571859 -0.2787378
0.3730956 -0.1701811 -0.3205582
0.4318218 0.03114225 -0.2889284
-0.2538142 -0.4496887 0.06540614
-0.2619281 -0.4474389 0.04595281
-0.2576192 -0.4486358 0.05725218
-0.2598626 -0.448188 0.05018445
-0.2457774 -0.4516131 0.0809854
-0.2607421 -0.4490349 0.03606566
-0.2600884 -0.449403 0.03620136
-0.2555637 -0.4496793 0.05826941
-0.2431609 -0.4521588 0.08570123
-0.2541833 -0.4501373 0.0607197
-0.2613578 -0.4486832 0.03598729
-0.2614722 -0.4486168 0.03598373
-0.2342199 -0.4627479 0.04387386
-0.2353122 -0.46222 0.04359345
-0.2298332 -0.464834 0.04500718
-0.2265386 -0.4663646 0.04586782
-0.189608 -0.48139 0.05685119
-0.1904811 -0.4810682 0.05665564
-0.1861764 -0.4826359 0.05762362
-0.1836947 -0.4835184 0.0581876
-0.1690147 -0.4883078 0.06252255
-0.1690147 -0.4883078 0.06252255
-0.1690147 -0.4883078 0.06252255
-0.1690147 -0.4883078 0.06252255
0.2986464 0.417563 -0.08585483
0.2967665 0.1780214 -0.3887899
0.3238634 0.1735869 -0.3686456
0.3008006 0.4175227 -0.07818767
0.2994105 0.4251007 -0.02371455
0.4105087 0.1571859 -0.2787378
0.2992445 0.4252174 -0.02371489
0.2633907 0.4475885 -0.03477685
0.305997 0.4175119 -0.05449031
0.4318218 0.03114225 -0.2889284
0.4237916 0.1631431 -0.254371
0.2974514 0.4264574 -0.02400561
0.2983674 0.4258278 -0.02381435
0.2512022 0.454273 -0.03811958
0.255792 0.4518094 -0.03685477
0.1903683 0.4811705 -0.0561643
0.2618792 0.4484424 -0.03518901
0.2000626 0.4774795 -0.05392443
0.193923 0.4798447 -0.05533943
0.1690147 0.4883078 -0.06252255
0.1690147 0.4883078 -0.06252255
0.1988195 0.4779661 -0.05421026
0.1690147 0.4883078 -0.06252255
0.1690147 0.4883078 -0.06252255
-0.3687264 -0.2123526 -0.2997777
-0.3687264 -0.2123526 -0.2997778
-0.345674 -0.2058899 -0.3302096
-0.345674 -0.2058899 -0.3302096
-0.3402267 -0.2042797 -0.3368013
-0.3402267 -0.2042797 -0.3368013
-0.2481488 -0.1736116 -0.4233211
-0.2481488 -0.1736116 -0.4233211
-0.1217721 -0.1243787 -0.4905313
-0.1217721 -0.1243787 -0.4905313
-0.07784806 -0.1058471 -0.5036423
-0.07784806 -0.1058471 -0.5036423
0.466621 0.2003396 -0.1142297
0.466621 0.2003396 -0.1142297
0.466621 0.2003396 -0.1142297
0.466621 0.2003396 -0.1142297
0.466621 0.2003396 -0.1142297
0.466621 0.2003396 -0.1142297
0.466621 0.2003396 -0.1142297
0.466621 0.2003396 -0.1142297
0.0778481 0.1058471 0.5036423
0.05752564 0.09705364 0.5081248
0.0778481 0.1058471 0.5036423
0.05752564 0.09705364 0.5081248
0.02317593 0.08188488 0.5134951
0.02317593 0.08188488 0.5134951
0.01824805 0.0796776 0.5140408
0.01824805 0.07967759 0.5140408
0.04711106 0.09249488 0.5100439
0.04711106 0.09249488 0.5100439
0.06688603 0.1011207 0.5061821
0.06688603 0.1011207 0.506182
-0.1905508 -0.1519969 -0.4598987
-0.2250297 -0.1651204 -0.4393362
-0.1905508 -0.1519968 -0.4598987
-0.2250297 -0.1651204 -0.4393362
-0.3415199 -0.2046646 -0.3352553
-0.3415199 -0.2046646 -0.3352553
-0.3687264 -0.2123526 -0.2997777
-0.3687264 -0.2123526 -0.2997778
-0.293713 0.4250181 -0.06333877
-0.3004217 0.4227068 -0.04455723
-0.2968952 0.4239081 -0.05544931
-0.2986968 0.4234761 -0.04865912
-0.2869173 0.4271352 -0.07844427
-0.2990454 0.4245539 -0.03529022
-0.2984634 0.4249497 -0.03545341
-0.2950781 0.4250352 -0.05651164
-0.2846874 0.427761 -0.08302446
-0.2939098 0.4255208 -0.0588948
-0.2995948 0.4241752 -0.03518312
-0.2996973 0.4241036 -0.03517361
-0.275471 0.4394249 -0.04405731
-0.2764447 0.4388451 -0.04373603
-0.2715592 0.4417219 -0.04535365
-0.2686199 0.443414 -0.04633545
-0.235591 0.4604201 -0.05856414
-0.2363761 0.4600465 -0.05833615
-0.232505 0.4618713 -0.05946345
-0.2302726 0.4629037 -0.06011847
-0.2170807 0.4685936 -0.06492697
-0.2170807 0.4685936 -0.06492697
-0.2170807 0.4685936 -0.06492697
-0.2170807 0.4685936 -0.06492697
0.2611713 -0.4443929 0.07227718
0.2597414 -0.4409979 0.09473548
0.261007 -0.4414491 0.0889808
0.2618082 -0.4444863 0.0693394
0.2604966 -0.4478456 0.0499534
0.2639162 -0.4428483 0.0717853
0.2604361 -0.4478805 0.04995646
0.2477946 -0.4545037 0.05425602
0.2633381 -0.4448645 0.06056512
0.2645791 -0.4436055 0.06427781
0.2637323 -0.4451371 0.05672607
0.2597819 -0.4482457 0.05008664
0.260116 -0.4480609 0.05000572
0.2436746 -0.4565695 0.05555689
0.2452187 -0.4558016 0.05506548
0.2237709 -0.4657682 0.06249842
0.2472802 -0.4547646 0.05441678
0.2268643 -0.464389 0.06160366
0.2249008 -0.4652678 0.0621696
0.2170807 -0.4685936 0.06492697
0.2170807 -0.4685936 0.06492697
0.2264656 -0.4645684 0.06171813
0.2170807 -0.4685936 0.06492697
0.2170807 -0.4685936 0.06492697
4
-0.2576433 0.3764496 -0.2232561 -1
-0.2544585 0.3652823 -0.2421847 -1
-0.2551697 0.3676985 -0.238225 -1
-0.2588405 0.3809233 -0.2151898 -1
-0.5244785 -0.001612451 0.01005515 -1
-0.5244785 -0.001612451 0.01005515 -1
-0.5244785 -0.001612451 0.01005515 -1
-0.5244785 -0.001612451 0.01005515 -1
-0.5244785 -0.001612451 0.01005515 -1
-0.5244785 -0.001612451 0.01005515 -1
-0.2762871 -0.3841482 0.2543906 -1
-0.2743358 -0.3709233 0.2776347 -1
-0.2739204 -0.3685072 0.2816363 -1
-0.2756919 -0.3796744 0.2625236 -1
0.2431759 -0.3814712 0.2850434 -1
0.2398755 -0.3854177 0.2823086 -1
0.2507828 -0.3720438 0.291322 -1
0.2522886 -0.3701209 0.2925605 -1
0.5158023 -0.001612451 0.04870526 -1
0.5158023 -0.001612451 0.04870526 -1
0.5158023 -0.001612451 0.04870526 -1
0.5158023 -0.001612451 0.04870526 -1
0.257971 0.3821928 -0.2047288 -1
0.2614652 0.3782463 -0.2072111 -1
0.2711105 0.366896 -0.2140312 -1
0.269517 0.3688189 -0.2129079 -1
-0.2555151 0.3740359 -0.2289181 -1
-0.2566701 0.3821797 -0.2154701 -1
-0.2557281 0.375447 -0.2266447 -1
-0.2541062 0.3654121 -0.2423336 -1
-0.2735803 -0.3686369 0.2818108 -1
-0.2740335 -0.3786718 0.2660449 -1
-0.2741437 -0.3854045 0.2548311 -1
-0.2739898 -0.3772607 0.2683278 -1
0.2496059 -0.3770489 0.2852698 -1
0.2538507 -0.369345 0.2921175 -1
0.2477213 -0.3803493 0.2822517 -1
0.2441997 -0.3863306 0.2766462 -1
0.5158023 -0.001612451 0.04870526 -1
0.5158023 -0.001612451 0.04870526 -1
0.5158023 -0.001612451 0.04870526 -1
0.5158023 -0.001612451 0.04870526 -1
0.2726352 0.3661201 -0.2134739 -1
0.2678939 0.373824 -0.2069601 -1
0.2618627 0.3831057 -0.1987614 -1
0.2657906 0.3771244 -0.2040902 -1
-0.2558518 0.3826146 -0.2156301 -1
-0.2558357 0.3828012 -0.2153535 -1
-0.2557183 0.3841297 -0.213376 -1
-0.2557359 0.3839349 -0.2136669 -1
-0.2558082 0.3826295 -0.2156513 -1
-0.2558031 0.3828147 -0.2153659 -1
-0.5244785 -0.001612451 0.01005515 -1
-0.5244785 -0.001612451 0.01005515 -1
-0.5244785 -0.001612451 0.01005515 -1
-0.5244785 -0.001612451 0.01005515 -1
-0.2733026 -0.3860262 0.254777 -1
-0.2733391 -0.3858395 0.2550516 -1
-0.2730779 -0.3871599 0.2531025 -1
-0.2730388 -0.3873547 0.2528136 -1
-0.2732711 -0.3860396 0.2547917 -1
-0.2732973 -0.3858544 0.255076 -1
0.2448388 -0.3869499 0.2750334 -1
0.2448426 -0.3868709 0.2751533 -1
0.2448149 -0.387428 0.2743061 -1
0.2448107 -0.3875104 0.2741804 -1
0.2448425 -0.3869419 0.275042 -1
0.2448478 -0.3868585 0.2751676 -1
0.5158023 -0.001612451 0.04870526 -1
0.5158023 -0.001612451 0.04870526 -1
0.5158023 -0.001612451 0.04870526 -1
0.5158023 -0.001612451 0.04870526 -1
0.5158023 -0.001612451 0.04870526 -1
0.5158023 -0.001612451 0.04870526 -1
0.2623931 0.3836461 -0.197225 -1
0.2623803 0.3837251 -0.1971056 -1
0.262289 0.3842856 -0.1962571 -1
0.2623025 0.3842031 -0.1963822 -1
0.2623993 0.3836336 -0.1972388 -1
0.2623848 0.383717 -0.1971139 -1
-0.5244785 -0.001612451 0.01005515 -1
-0.5244785 -0.001612451 0.01005515 -1
-0.5244785 -0.001612451 0.01005515 -1
-0.5244785 -0.001612451 0.01005515 -1
-0.250845 0.3853836 -0.2163594 -1
-0.2533639 0.3940755 -0.199392 -1
-0.2576437 0.411005 -0.1616763 -1
-0.2566001 0.406496 -0.1724389 -1
-0.5244785 -0.001612451 0.01005515 -1
-0.5244785 -0.001612451 0.01005515 -1
-0.5244785 -0.001612451 0.01005515 -1
-0.5244785 -0.001612451 0.01005515 -1
-0.2696534 -0.3973004 0.2390428 -1
-0.2684005 -0.3886085 0.2561503 -1
-0.2708805 -0.4097209 0.2119239 -1
-0.2711226 -0.4142299 0.2011135 -1
0.2546641 -0.3926516 0.2550476 -1
0.2593307 -0.382599 0.266546 -1
0.2450685 -0.410837 0.232484 -1
0.2418932 -0.4162326 0.2252879 -1
0.2488106 -0.4220125 0.202871 -1
0.2459061 -0.4265148 0.1959796 -1
0.5158023 -0.001612451 0.04870526 -1
0.5158023 -0.001612451 0.04870526 -1
0.5158023 -0.001612451 0.04870526 -1
0.5158023 -0.001612451 0.04870526 -1
0.2762025 0.3793741 -0.1875662 -1
0.2706957 0.3894267 -0.1764458 -1
0.2557516 0.4130077 -0.1477159 -1
0.2594522 0.4076121 -0.1546565 -1
0.2575786 0.42329 -0.1181906 -1
0.2609864 0.4187877 -0.1248475 -1
-0.2543303 0.4128613 -0.1620223 -1
-0.2567299 0.4171537 -0.1490936 -1
-0.2591886 0.4215791 -0.13457 -1
-0.2575283 0.4185874 -0.1445345 -1
-0.2613243 0.4301865 -0.106367 -1
-0.2595868 0.4278898 -0.1165496 -1
-0.2603565 0.4353384 -0.09082008 -1
-0.2621603 0.4375817 -0.07811762 -1
-0.2614202 0.4382555 -0.07713033 -1
-0.2616233 0.4384627 -0.07577555 -1
-0.5244785 -0.001612451 0.01005515 -1
-0.5244785 -0.001612451 0.01005515 -1
-0.5244785 -0.001612451 0.01005515 -1
-0.5244785 -0.001612451 0.01005515 -1
-0.2692777 -0.4203785 0.1886333 -1
-0.2678442 -0.4160862 0.2017044 -1
-0.2697357 -0.4218122 0.1840275 -1
-0.270652 -0.424804 0.1739673 -1
-0.2697117 -0.4311146 0.155967 -1
-0.2706889 -0.4334114 0.1456836 -1
-0.2694264 -0.4408066 0.1174501 -1
-0.26857 -0.4385633 0.1302514 -1
-0.2687169 -0.4416876 0.1151543 -1
-0.2686149 -0.4414805 0.1165204 -1
0.5158023 -0.001612451 0.04870526 -1
0.5158023 -0.001612451 0.04870526 -1
0.5158023 -0.001612451 0.04870526 -1
0.5158023 -0.001612451 0.04870526 -1
-0.5244785 -0.001612451 0.01005515 -1
-0.5244785 -0.001612451 0.01005515 -1
-0.5244785 -0.001612451 0.01005515 -1
-0.5244785 -0.001612451 0.01005515 -1
0.2514932 -0.4288727 0.180769 -1
0.2527317 -0.4237909 0.1924753 -1
0.2508009 -0.4313679 0.1747554 -1
0.2496243 -0.4351729 0.1652035 -1
0.5158023 -0.001612451 0.04870526 -1
0.5158023 -0.001612451 0.04870526 -1
0.5158023 -0.001612451 0.04870526 -1
0.5158023 -0.001612451 0.04870526 -1
0.2641253 0.4205661 -0.1141895 -1
0.2620216 0.4256479 -0.1026073 -1
0.2590027 0.4319481 -0.08722344 -1
0.2608849 0.428143 -0.09666171 -1
-0.5244785 -0.001612451 0.01005515 -1
-0.5244785 -0.001612451 0.01005515 -1
-0.5244785 -0.001612451 0.01005515 -1
-0.5244785 -0.001612451 0.01005515 -1
0.2515694 -0.4342317 0.1645521 -1
0.2519661 -0.4376481 0.1522647 -1
0.2522432 -0.4415058 0.1369878 -1
0.2520457 -0.4385132 0.1489821 -1
0.5158023 -0.001612451 0.04870526 -1
0.5158023 -0.001612451 0.04870526 -1
0.5158023 -0.001612451 0.04870526 -1
0.5158023 -0.001612451 0.04870526 -1
0.2603781 0.4344232 -0.0741465 -1
0.2608943 0.4310068 -0.08642945 -1
0.2602139 0.4352883 -0.0708671 -1
0.2595209 0.4382808 -0.05889121 -1
-0.5244785 -0.001612451 0.01005515 -1
-0.5244785 -0.001612451 0.01005515 -1
-0.5244785 -0.001612451 0.01005515 -1
-0.5244785 -0.001612451 0.01005515 -1
0.251385 -0.4419869 0.1370632 -1
0.2516771 -0.4421184 0.135824 -1
0.251946 -0.4421949 0.134856 -1
0.2516524 -0.4421113 0.1359126 -1
0.5158023 -0.001612451 0.04870526 -1
0.5158023 -0.001612451 0.04870526 -1
0.5158023 -0.001612451 0.04870526 -1
0.5158023 -0.001612451 0.04870526 -1
0.2588699 0.4388934 -0.05777263 -1
0.2586706 0.4387619 -0.05903006 -1
0.2588519 0.4388864 -0.0578628 -1
0.2590663 0.43897 -0.05678728 -1
-0.2615494 0.4382367 -0.07689601 -1
-0.2615355 0.4384851 -0.07589658 -1
-0.2615504 0.438218 -0.07697069 -1
-0.2615633 0.4379187 -0.07817058 -1
-0.5244785 -0.001612451 0.01005515 -1
-0.5244785 -0.001612451 0.01005515 -1
-0.5244785 -0.001612451 0.01005515 -1
-0.5244785 -0.001612451 0.01005515 -1
-0.2686385 -0.44171 0.1152815 -1
-0.2687265 -0.4414616 0.1162772 -1
-0.2688348 -0.4411436 0.1175472 -1
-0.268733 -0.4414429 0.1163516 -1
0.2518747 -0.442212 0.1349574 -1
0.251586 -0.442208 0.1356723 -1
0.2511773 -0.4421029 0.1370814 -1
0.2515299 -0.442207 0.135811 -1
0.5158023 -0.001612451 0.04870526 -1
0.5158023 -0.001612451 0.04870526 -1
0.5158023 -0.001612451 0.04870526 -1
0.5158023 -0.001612451 0.04870526 -1
0.2587678 0.4389831 -0.0576281 -1
0.2590027 0.4389871 -0.05689369 -1
0.2587222 0.4389821 -0.05777059 -1
0.2584647 0.4388781 -0.05906361 -1
-0.2580382 0.4394273 -0.08034585 -1
-0.2628622 0.4343089 -0.08918399 -1
-0.2729055 0.422503 -0.1081594 -1
-0.2658541 0.4309613 -0.0947521 -1
-0.5244785 -0.001612451 0.01005515 -1
-0.5244785 -0.001612451 0.01005515 -1
-0.5244785 -0.001612451 0.01005515 -1
-0.5244785 -0.001612451 0.01005515 -1
-0.2709475 -0.4375337 0.1284338 -1
-0.265481 -0.4426521 0.119978 -1
-0.2743444 -0.4341862 0.1337646 -1
-0.2823713 -0.4257279 0.1466116 -1
0.2471945 -0.4407537 0.1510595 -1
0.2520582 -0.4416097 0.1370041 -1
0.2458617 -0.4404636 0.1547968 -1
0.2382336 -0.4383982 0.1753144 -1
0.2485901 -0.4411271 0.1467419 -1
0.2519651 -0.4416619 0.1370123 -1
0.5158023 -0.001612451 0.04870526 -1
0.5158023 -0.001612451 0.04870526 -1
0.5158023 -0.001612451 0.04870526 -1
0.5158023 -0.001612451 0.04870526 -1
0.2593374 0.4383849 -0.05892123 -1
0.2555301 0.4375289 -0.0732987 -1
0.2483936 0.4351734 -0.09815164 -1
0.2544782 0.4372388 -0.07712462 -1
0.2592454 0.4384369 -0.05893625 -1
0.2566018 0.4379021 -0.06888943 -1
-0.2677907 0.4244239 -0.1120597 -1
-0.2677907 0.4244239 -0.1120597 -1
-0.2497972 0.4414425 -0.09050191 -1
-0.2539028 0.4377925 -0.0953607 -1
-0.5244785 -0.001612451 0.01005515 -1
-0.5244785 -0.001612451 0.01005515 -1
-0.5244785 -0.001612451 0.01005515 -1
-0.5244785 -0.001612451 0.01005515 -1
-0.2775598 -0.4276489 0.1508809 -1
-0.2775598 -0.4276489 0.1508809 -1
-0.2623859 -0.4410883 0.1351713 -1
-0.2579054 -0.4447565 0.1306052 -1
0.5158023 -0.001612451 0.04870526 -1
0.5158023 -0.001612451 0.04870526 -1
0.5158023 -0.001612451 0.04870526 -1
0.5158023 -0.001612451 0.04870526 -1
-0.5244785 -0.001612451 0.01005515 -1
-0.5244785 -0.001612451 0.01005515 -1
-0.5244785 -0.001612451 0.01005515 -1
-0.5244785 -0.001612451 0.01005515 -1
-0.5244785 -0.001612451 0.01005515 -1
-0.5244785 -0.001612451 0.01005515 -1
-0.5244785 -0.001612451 0.01005515 -1
-0.5244785 -0.001612451 0.01005515 -1
-0.5244785 -0.001612451 0.01005515 -1
-0.5244785 -0.001612451 0.01005515 -1
-0.5244785 -0.001612451 0.01005515 -1
-0.5244785 -0.001612451 0.01005515 -1
-0.5244785 -0.001612451 0.01005515 -1
-0.5244785 -0.001612451 0.01005515 -1
-0.5244785 -0.001612451 0.01005515 -1
-0.5244785 -0.001612451 0.01005515 -1
-0.5244785 -0.001612451 0.01005515 -1
-0.5244785 -0.001612451 0.01005515 -1
-0.2820819 0.1468122 -0.3896714 -1
-0.2910477 0.1230972 -0.391553 -1
-0.3068141 0.1579103 -0.366736 -1
-0.2971363 0.1587508 -0.3739472 -1
-0.3090054 0.1674225 -0.3607458 -1
-0.310061 0.1653699 -0.3608149 -1
-0.3954439 0.1779125 -0.2622382 -1
-0.3974988 0.1737277 -0.2620404 -1
-0.4702649 0.1617916 -0.1208587 -1
-0.4701965 0.1619661 -0.1208793 -1
-0.4859404 0.1508828 -0.0705119 -1
-0.4859404 0.1508828 -0.0705119 -1
-0.06249963 0.08089118 0.5275167 -1
-0.06249963 0.08089118 0.5275167 -1
-0.06249962 0.08089118 0.5275167 -1
-0.06249962 0.08089118 0.5275167 -1
-0.06249963 0.08089118 0.5275167 -1
-0.06249962 0.08089118 0.5275167 -1
-0.06249964 0.08089118 0.5275167 -1
-0.06249963 0.08089118 0.5275167 -1
0.490135 -0.1641624 0.1075372 -1
0.4806052 -0.1988553 0.08924419 -1
0.490135 -0.1641624 0.1075372 -1
0.4802947 -0.1995934 0.08933404 -1
0.4543694 -0.2610651 0.05897485 -1
0.457382 -0.2557412 0.05831026 -1
0.4383828 -0.287875 0.05699912 -1
0.4404058 -0.2847658 0.05660543 -1
0.4472237 -0.2678884 0.08582661 -1
0.4464438 -0.2691757 0.08597068 -1
0.461174 -0.2365645 0.1039691 -1
0.4605344 -0.2377871 0.1041039 -1
-0.4363265 0.1712738 -0.1983995 -1
-0.404433 0.1629778 -0.2587643 -1
-0.4213344 0.181688 -0.2184637 -1
-0.4148588 0.1722344 -0.236578 -1
-0.3277272 0.1248109 -0.3620869 -1
-0.3142902 0.1247608 -0.373345 -1
-0.2943246 0.1157376 -0.3914598 -1
-0.2859914 0.1071486 -0.3997895 -1
-0.4349006 0.214356 -0.1578768 -1
-0.3561734 0.1687499 -0.3158525 -1
-0.3908905 0.1827964 -0.2653783 -1
-0.389504 0.1888734 -0.2631656 -1
-0.4542855 0.2245442 -0.07734265 -1
-0.3850226 0.1953988 -0.2647507 -1
-0.3553573 0.17343 -0.3142344 -1
-0.4378045 0.223017 -0.1385341 -1
-0.4566715 0.2238578 -0.06705334 -1
-0.4479364 0.2335253 -0.08497594 -1
-0.4323415 0.2339135 -0.137425 -1
-0.4420626 0.2438648 -0.08583742 -1
-0.4564349 0.2153231 -0.08825929 -1
-0.461322 0.2242437 -0.03491857 -1
-0.4292297 0.1854149 -0.200557 -1
-0.4202991 0.1745134 -0.225791 -1
-0.4784317 0.172001 -0.07148073 -1
-0.4801968 0.1760533 -0.0517385 -1
-0.4741607 0.1621624 -0.1064019 -1
-0.4728524 0.1574712 -0.1171705 -1
-0.4859404 0.1508828 -0.07051191 -1
-0.4859404 0.1508828 -0.07051195 -1
-0.4859404 0.1508828 -0.07051191 -1
-0.4859404 0.1508828 -0.07051191 -1
-0.4222423 0.2745076 -0.09016827 -1
-0.3915471 0.2919345 -0.1452465 -1
-0.3743425 0.3010683 -0.1673054 -1
-0.4134614 0.2627479 -0.1416769 -1
-0.4169953 0.282512 -0.08952518 -1
-0.306205 0.3091091 -0.25748 -1
-0.4074784 0.2727606 -0.1399257 -1
-0.4457243 0.2524656 -0.03840624 -1
-0.3674448 0.2273795 -0.2636099 -1
-0.2670144 0.2315202 -0.3580219 -1
-0.3000087 0.2325563 -0.331397 -1
-0.3352532 0.2099743 -0.31344 -1
-0.3629752 0.2333346 -0.2644254 -1
-0.4078877 0.1994569 -0.2271619 -1
-0.4157375 0.2119431 -0.2018396 -1
-0.4702173 0.1642976 -0.1179382 -1
-0.4409814 0.2435003 -0.09117164 -1
-0.476244 0.1857104 -0.05297513 -1
-0.4710476 0.1700661 -0.1072982 -1
-0.4859404 0.1508828 -0.07051191 -1
-0.4859404 0.1508828 -0.07051191 -1
-0.4746418 0.1813329 -0.07262267 -1
-0.4859404 0.1508828 -0.07051196 -1
-0.4859404 0.1508828 -0.07051192 -1
0.2824854 0.1051182 -0.40553 -1
0.2817228 0.1065988 -0.4056408 -1
0.2987976 0.1396972 -0.3833256 -1
0.2988975 0.1395164 -0.3833176 -1
0.3019413 0.1476699 -0.377974 -1
0.3022389 0.1471414 -0.3779541 -1
0.3838182 0.180306 -0.2819202 -1
0.383922 0.1801195 -0.2819045 -1
0.4531967 0.1953394 -0.1446843 -1
0.4535659 0.1945921 -0.1445865 -1
0.4687183 0.1936998 -0.09571706 -1
0.4687183 0.1936998 -0.09571706 -1
0.07994537 0.09920732 0.5221549 -1
0.07994536 0.09920732 0.5221549 -1
0.07994536 0.09920732 0.5221549 -1
0.07994536 0.09920732 0.5221549 -1
0.07994537 0.09920732 0.5221549 -1
0.07994537 0.09920732 0.5221549 -1
0.07994538 0.09920733 0.5221549 -1
0.07994537 0.09920733 0.5221549 -1
-0.4645237 -0.2069794 0.1327423 -1
-0.4582455 -0.2302717 0.1133432 -1
-0.4645237 -0.2069794 0.1327424 -1
-0.457866 -0.2310096 0.1134412 -1
-0.4437 -0.2681033 0.08032757 -1
-0.4437002 -0.268103 0.08032753 -1
-0.4348202 -0.2834259 0.07692539 -1
-0.4348915 -0.2833163 0.07691092 -1
-0.4386833 -0.2690067 0.1068055 -1
-0.4391314 -0.2682826 0.1067155 -1
-0.4488199 -0.2436211 0.1254381 -1
-0.449548 -0.242306 0.1252716 -1
0.4236875 0.1846372 -0.2193829 -1
0.4021094 0.1807429 -0.256801 -1
0.424484 0.1830967 -0.2192037 -1
0.4019422 0.1810536 -0.2568322 -1
0.3137351 0.1225977 -0.3778445 -1
0.313629 0.1228021 -0.3778613 -1
0.2793069 0.1112452 -0.4059606 -1
0.2787609 0.112286 -0.4060264 -1
0.4108044 0.2459718 -0.1816507 -1
0.3299213 0.1890571 -0.3352581 -1
0.3652514 0.2078032 -0.286533 -1
0.3635798 0.2135198 -0.2844389 -1
0.4323689 0.2602116 -0.1022194 -1
0.3587127 0.21924 -0.2859924 -1
0.328934 0.1935319 -0.3336643 -1
0.413885 0.255157 -0.1626305 -1
0.4351549 0.2601148 -0.09204312 -1
0.4252986 0.2679246 -0.1096847 -1
0.4079241 0.2650654 -0.1614886 -1
0.4188898 0.2771916 -0.1104959 -1
0.4346119 0.2513066 -0.1130709 -1
0.440941 0.2619648 -0.06014659 -1
0.4053152 0.2163954 -0.2235414 -1
0.3962403 0.2042705 -0.2481101 -1
0.4597685 0.2128977 -0.09663867 -1
0.462013 0.2175482 -0.07707419 -1
0.4548522 0.2020079 -0.131149 -1
0.4534621 0.1970771 -0.1417646 -1
0.4687183 0.1936998 -0.09571707 -1
0.4687183 0.1936998 -0.0957171 -1
0.4687183 0.1936998 -0.09571707 -1
0.4687183 0.1936998 -0.09571707 -1
0.4464399 0.2343011 -0.1056914 -1
0.4506413 0.2343648 -0.08939739 -1
0.4485432 0.2335415 -0.09946425 -1
0.4352277 0.220742 -0.1592936 -1
0.4448813 0.2370322 -0.1059294 -1
0.4291901 0.2158757 -0.1789669 -1
0.4337873 0.2247338 -0.1576393 -1
0.4580435 0.2330063 -0.05633589 -1
0.3842563 0.1786108 -0.282413 -1
0.383405 0.1768695 -0.2845522 -1
0.3495935 0.1543218 -0.3339887 -1
0.350741 0.1562558 -0.3319615 -1
0.3822326 0.1802883 -0.2839349 -1
0.4102555 0.1790374 -0.2457795 -1
0.4204397 0.1894694 -0.2211753 -1
0.4567244 0.1903873 -0.1409054 -1
0.4515739 0.222434 -0.1096104 -1
0.466861 0.207903 -0.07575107 -1
0.4586951 0.1942065 -0.1301439 -1
0.4687183 0.1936998 -0.09571707 -1
0.4687183 0.1936998 -0.09571707 -1
0.4644221 0.2035996 -0.09539381 -1
0.4687183 0.1936998 -0.09571711 -1
0.4687183 0.1936998 -0.09571708 -1
16
0 0
0 0.02561
0.16666 0.02561
0.16666 0
0.33333 0
0.16666 0
0.16666 0.02561
0.33333 0.02561
0.16666 0.05055
0.33333 0.05055
0.33333 0
0.33333 0.02561
0.5 0.02561
0.5 0
0.66666 0
0.5 0
0.5 0.02561
0.66666 0.02561
0.66666 0
0.66666 0.02561
0.83333 0.02561
0.83333 0
1 0
0.83333 0
0.83333 0.02561
1 0.02561
0 0.02561
0 0.05055
0.16666 0.05055
0.16666 0.02561
0.33333 0.02561
0.33333 0.05055
0.5 0.05055
0.5 0.02561
0.66666 0.02561
0.5 0.02561
0.5 0.05055
0.66666 0.05055
0.66666 0.02561
0.66666 0.05055
0.83333 0.05055
0.83333 0.02561
1 0.02561
0.83333 0.02561
0.83333 0.05055
1 0.05055
0.16666 0.05055
0 0.05055
0 0.16716
0.16666 0.16716
0 0.2839
0.16666 0.2839
0.33333 0.05055
0.16666 0.05055
0.16666 0.16716
0.33333 0.16716
0.5 0.05055
0.33333 0.05055
0.33333 0.16716
0.5 0.16716
0.33333 0.2839
0.5 0.2839
0.66666 0.05055
0.5 0.05055
0.5 0.16716
0.66666 0.16716
0.5 0.2839
0.66666 0.2839
0.83333 0.05055
0.66666 0.05055
0.66666 0.16716
0.83333 0.16716
0.66666 0.2839
0.83333 0.2839
1 0.05055
0.83333 0.05055
0.83333 0.16716
1 0.16716
0.83333 0.2839
1 0.2839
0.33333 0.16716
0.16666 0.16716
0.16666 0.2839
0.33333 0.2839
0.16666 0.2839
0 0.2839
0 0.36535
0.16666 0.36535
0.33333 0.2839
0.16666 0.2839
0.16666 0.36535
0.33333 0.36535
0.5 0.2839
0.33333 0.2839
0.33333 0.36535
0.5 0.36535
0.66666 0.2839
0.5 0.2839
0.5 0.36535
0.66666 0.36535
0.5 0.44527
0.66666 0.44527
0.83333 0.2839
0.66666 0.2839
0.66666 0.36535
0.83333 0.36535
1 0.2839
0.83333 0.2839
0.83333 0.36535
1 0.36535
0.83333 0.44527
1 0.44527
0.16666 0.36535
0 0.36535
0 0.44527
0.16666 0.44527
0 0.5642
0.16666 0.5642
0 0.68348
0.16666 0.68348
0 0.778
0.16666 0.778
0.33333 0.36535
0.16666 0.36535
0.16666 0.44527
0.33333 0.44527
0.5 0.36535
0.33333 0.36535
0.33333 0.44527
0.5 0.44527
0.33333 0.5642
0.5 0.5642
0.33333 0.68348
0.5 0.68348
0.33333 0.778
0.5 0.778
0.83333 0.36535
0.66666 0.36535
0.66666 0.44527
0.83333 0.44527
0.33333 0.44527
0.16666 0.44527
0.16666 0.5642
0.33333 0.5642
0.66666 0.44527
0.5 0.44527
0.5 0.5642
0.66666 0.5642
0.83333 0.44527
0.66666 0.44527
0.66666 0.5642
0.83333 0.5642
1 0.44527
0.83333 0.44527
0.83333 0.5642
1 0.5642
0.33333 0.5642
0.16666 0.5642
0.16666 0.68348
0.33333 0.68348
0.66666 0.5642
0.5 0.5642
0.5 0.68348
0.66666 0.68348
0.83333 0.5642
0.66666 0.5642
0.66666 0.68348
0.83333 0.68348
1 0.5642
0.83333 0.5642
0.83333 0.68348
1 0.68348
0.33333 0.68348
0.16666 0.68348
0.16666 0.778
0.33333 0.778
0.66666 0.68348
0.5 0.68348
0.5 0.778
0.66666 0.778
0.83333 0.68348
0.66666 0.68348
0.66666 0.778
0.83333 0.778
1 0.68348
0.83333 0.68348
0.83333 0.778
1 0.778
0.16666 0.778
0 0.778
0 0.87158
0.16666 0.87158
0.33333 0.778
0.16666 0.778
0.16666 0.87158
0.33333 0.87158
0.5 0.778
0.33333 0.778
0.33333 0.87158
0.5 0.87158
0.66666 0.778
0.5 0.778
0.5 0.87158
0.66666 0.87158
0.83333 0.778
0.66666 0.778
0.66666 0.87158
0.83333 0.87158
1 0.778
0.83333 0.778
0.83333 0.87158
1 0.87158
0.16666 0.87158
0 0.87158
0 0.93441
0.16666 0.93441
0.33333 0.87158
0.16666 0.87158
0.16666 0.93441
0.33333 0.93441
0.5 0.87158
0.33333 0.87158
0.33333 0.93441
0.5 0.93441
0.66666 0.87158
0.5 0.87158
0.5 0.93441
0.66666 0.93441
0.5 1
0.66666 1
0.83333 0.87158
0.66666 0.87158
0.66666 0.93441
0.83333 0.93441
1 0.87158
0.83333 0.87158
0.83333 0.93441
1 0.93441
0.83333 1
1 1
0.16666 0.93441
0 0.93441
0 1
0.16666 1
0.33333 0.93441
0.16666 0.93441
0.16666 1
0.33333 1
0.5 0.93441
0.33333 0.93441
0.33333 1
0.5 1
0.83333 0.93441
0.66666 0.93441
0.66666 1
0.83333 1
0 0
0 0
0 0
0 0
0 0
0 0
0 0
0 0
0 0
0 0
0 0
0 0
0 0
0 0
0 0
0 0
0 0
0 0
0 0
0 1
0.2 1
0.2 0
0.4 1
0.4 0
0.6 1
0.6 0
0.8 1
0.8 0
1 1
1 0
0 1
0.4 0
0 0
0.4 1
0.8 1
0.8 0
1 1
1 0
0 1
0.2 0
0 0
0.2 1
0.4 1
0.4 0
0.6 1
0.6 0
0.8 1
0.8 0
1 1
1 0
0 1
0.2 0
0 0
0.2 1
0.6 1
0.6 0
1 1
1 0
0 0.4
0.2 0
0 0
0.2 0.4
0 0.8
0.4 0.4
0.4 0
0.2 0.8
0 1
0.2 1
0.4 0.8
0.4 1
0.6 0.8
0.6 1
0.6 0.4
0.6 0
0.8 0.8
0.8 1
0.8 0.4
0.8 0
1 0.8
1 1
1 0.4
1 0
0.2 0
0 0
0 0.2
0.2 0.2
0.4 0
0 0.6
0.4 0.2
0.6 0
0.2 0.6
0 1
0.2 1
0.4 1
0.4 0.6
0.6 1
0.6 0.6
0.8 1
0.6 0.2
0.8 0
0.8 0.6
1 1
1 0.6
0.8 0.2
1 0
1 0.2
0 0
0 1
0.2 1
0.2 0
0.4 1
0.4 0
0.6 1
0.6 0
0.8 1
0.8 0
1 1
1 0
0 1
0.4 0
0 0
0.4 1
0.8 0
0.8 1
1 1
1 0
0 1
0.2 0
0 0
0.2 1
0.4 1
0.4 0
0.6 1
0.6 0
0.8 1
0.8 0
1 1
1 0
0 1
0.2 0
0 0
0.2 1
0.6 0
0.6 1
1 0
1 1
0 0.4
0.2 0
0 0
0.2 0.4
0 0.8
0.4 0.4
0.4 0
0.2 0.8
0 1
0.2 1
0.4 0.8
0.4 1
0.6 0.8
0.6 1
0.6 0.4
0.6 0
0.8 0.8
0.8 1
0.8 0.4
0.8 0
1 0.8
1 1
1 0.4
1 0
0.2 0
0 0
0 0.2
0.2 0.2
0.4 0
0 0.6
0.4 0.2
0.6 0
0.2 0.6
0 1
0.2 1
0.4 1
0.4 0.6
0.6 1
0.6 0.6
0.8 1
0.6 0.2
0.8 0
0.8 0.6
1 1
1 0.6
0.8 0.2
1 0
1 0.2
256
0 1 2
0 2 3
4 5 6
4 6 7
7 6 8
7 8 9
10 11 12
10 12 13
14 15 16
14 16 17
18 19 20
18 20 21
22 23 24
22 24 25
26 27 28
26 28 29
30 31 32
30 32 33
34 35 36
34 36 37
38 39 40
38 40 41
42 43 44
42 44 45
46 47 48
46 48 49
49 48 50
49 50 51
52 53 54
52 54 55
56 57 58
56 58 59
59 58 60
59 60 61
62 63 64
62 64 65
65 64 66
65 66 67
68 69 70
68 70 71
71 70 72
71 72 73
74 75 76
74 76 77
77 76 78
77 78 79
80 81 82
80 82 83
84 85 86
84 86 87
88 89 90
88 90 91
92 93 94
92 94 95
96 97 98
96 98 99
99 98 100
99 100 101
102 103 104
102 104 105
106 107 108
106 108 109
109 108 110
109 110 111
112 113 114
112 114 115
115 114 116
115 116 117
117 116 118
117 118 119
119 118 120
119 120 121
122 123 124
122 124 125
126 127 128
126 128 129
129 128 130
129 130 131
131 130 132
131 132 133
133 132 134
133 134 135
136 137 138
136 138 139
140 141 142
140 142 143
144 145 146
144 146 147
148 149 150
148 150 151
152 153 154
152 154 155
156 157 158
156 158 159
160 161 162
160 162 163
164 165 166
164 166 167
168 169 170
168 170 171
172 173 174
172 174 175
176 177 178
176 178 179
180 181 182
180 182 183
184 185 186
184 186 187
188 189 190
188 190 191
192 193 194
192 194 195
196 197 198
196 198 199
200 201 202
200 202 203
204 205 206
204 206 207
208 209 210
208 210 211
212 213 214
212 214 215
216 217 218
216 218 219
220 221 222
220 222 223
224 225 226
224 226 227
227 226 228
227 228 229
230 231 232
230 232 233
234 235 236
234 236 237
237 236 238
237 238 239
240 241 242
240 242 243
244 245 246
244 246 247
248 249 250
248 250 251
252 253 254
252 254 255
256 257 258
257 259 258
257 260 259
257 261 260
261 262 260
260 263 259
263 264 259
265 266 267
265 268 266
268 269 266
269 270 266
269 271 270
268 272 269
268 273 272
274 275 276
274 276 277
277 276 278
277 278 279
279 278 280
279 280 281
281 280 282
281 282 283
283 282 284
283 284 285
286 287 288
286 289 287
287 289 290
287 290 291
291 290 292
291 292 293
294 295 296
294 297 295
295 297 298
295 298 299
299 298 300
299 300 301
301 300 302
301 302 303
303 302 304
303 304 305
306 307 308
306 309 307
307 309 310
307 310 311
311 310 312
311 312 313
314 315 316
314 317 315
318 317 314
315 317 319
315 319 320
318 321 317
321 318 322
321 322 323
317 321 324
324 321 323
317 324 319
324 323 325
326 324 325
319 324 326
326 325 327
320 319 328
319 326 328
320 328 329
330 326 327
328 326 330
330 327 331
329 328 332
328 330 332
329 332 333
334 330 331
332 330 334
334 331 335
332 334 336
333 332 336
333 336 337
338 339 340
338 340 341
342 338 341
343 341 340
342 341 344
345 342 344
343 346 341
347 346 343
347 348 346
346 348 349
341 346 350
346 349 350
341 350 344
350 349 351
350 351 352
344 350 352
352 351 353
345 344 354
344 352 354
355 345 354
352 353 356
354 352 356
356 353 357
356 357 358
355 354 359
354 356 359
359 356 358
360 355 359
359 358 361
360 359 361
362 363 364
362 364 365
365 364 366
365 366 367
367 366 368
367 368 369
369 368 370
369 370 371
371 370 372
371 372 373
374 375 376
374 377 375
377 378 375
377 379 378
378 379 380
378 380 381
382 383 384
382 385 383
383 385 386
383 386 387
387 386 388
387 388 389
389 388 390
389 390 391
391 390 392
391 392 393
394 395 396
394 397 395
397 398 395
397 399 398
399 400 398
399 401 400
402 403 404
402 405 403
406 405 402
403 405 407
403 407 408
406 409 405
409 406 410
409 410 411
405 409 412
412 409 411
405 412 407
412 411 413
414 412 413
407 412 414
414 413 415
408 407 416
407 414 416
408 416 417
418 414 415
416 414 418
418 415 419
417 416 420
416 418 420
417 420 421
422 418 419
420 418 422
422 419 423
420 422 424
421 420 424
421 424 425
426 427 428
426 428 429
430 426 429
431 429 428
430 429 432
433 430 432
431 434 429
435 434 431
435 436 434
434 436 437
429 434 438
434 437 438
429 438 432
438 437 439
438 439 440
432 438 440
440 439 441
433 432 442
432 440 442
443 433 442
440 441 444
442 440 444
444 441 445
444 445 446
443 442 447
442 444 447
447 444 446
448 443 447
447 446 449
448 447 449
16384
0 474
474 276
750 276
32768
Bird_0
Bird_LW_0
Bird_RW_0
64
1 0 0 0
1 0 0 0
1 0 0 0
1 0 0 0
1 0 0 0
1 0 0 0
1 0 0 0
1 0 0 0
1 0 0 0
1 0 0 0
1 0 0 0
1 0 0 0
1 0 0 0
1 0 0 0
1 0 0 0
1 0 0 0
1 0 0 0
1 0 0 0
1 0 0 0
1 0 0 0
1 0 0 0
1 0 0 0
1 0 0 0
1 0 0 0
1 0 0 0
1 0 0 0
1 0 0 0
1 0 0 0
1 0 0 0
1 0 0 0
1 0 0 0
1 0 0 0
1 0 0 0
1 0 0 0
1 0 0 0
1 0 0 0
1 0 0 0
1 0 0 0
1 0 0 0
1 0 0 0
1 0 0 0
1 0 0 0
1 0 0 0
1 0 0 0
1 0 0 0
1 0 0 0
1 0 0 0
1 0 0 0
1 0 0 0
1 0 0 0
1 0 0 0
1 0 0 0
1 0 0 0
1 0 0 0
1 0 0 0
1 0 0 0
1 0 0 0
1 0 0 0
1 0 0 0
1 0 0 0
1 0 0 0
1 0 0 0
1 0 0 0
1 0 0 0
1 0 0 0
1 0 0 0
1 0 0 0
1 0 0 0
1 0 0 0
1 0 0 0
1 0 0 0
1 0 0 0
1 0 0 0
1 0 0 0
1 0 0 0
1 0 0 0
1 0 0 0
1 0 0 0
1 0 0 0
1 0 0 0
1 0 0 0
1 0 0 0
1 0 0 0
1 0 0 0
1 0 0 0
1 0 0 0
1 0 0 0
1 0 0 0
1 0 0 0
1 0 0 0
1 0 0 0
1 0 0 0
1 0 0 0
1 0 0 0
1 0 0 0
1 0 0 0
1 0 0 0
1 0 0 0
1 0 0 0
1 0 0 0
1 0 0 0
1 0 0 0
1 0 0 0
1 0 0 0
1 0 0 0
1 0 0 0
1 0 0 0
1 0 0 0
1 0 0 0
1 0 0 0
1 0 0 0
1 0 0 0
1 0 0 0
1 0 0 0
1 0 0 0
1 0 0 0
1 0 0 0
1 0 0 0
1 0 0 0
1 0 0 0
1 0 0 0
1 0 0 0
1 0 0 0
1 0 0 0
1 0 0 0
1 0 0 0
1 0 0 0
1 0 0 0
1 0 0 0
1 0 0 0
1 0 0 0
1 0 0 0
1 0 0 0
1 0 0 0
1 0 0 0
1 0 0 0
1 0 0 0
1 0 0 0
1 0 0 0
1 0 0 0
1 0 0 0
1 0 0 0
1 0 0 0
1 0 0 0
1 0 0 0
1 0 0 0
1 0 0 0
1 0 0 0
1 0 0 0
1 0 0 0
1 0 0 0
1 0 0 0
1 0 0 0
1 0 0 0
1 0 0 0
1 0 0 0
1 0 0 0
1 0 0 0
1 0 0 0
1 0 0 0
1 0 0 0
1 0 0 0
1 0 0 0
1 0 0 0
1 0 0 0
1 0 0 0
1 0 0 0
1 0 0 0
1 0 0 0
1 0 0 0
1 0 0 0
1 0 0 0
1 0 0 0
1 0 0 0
1 0 0 0
1 0 0 0
1 0 0 0
1 0 0 0
1 0 0 0
1 0 0 0
1 0 0 0
1 0 0 0
1 0 0 0
1 0 0 0
1 0 0 0
1 0 0 0
1 0 0 0
1 0 0 0
1 0 0 0
1 0 0 0
1 0 0 0
1 0 0 0
1 0 0 0
1 0 0 0
1 0 0 0
1 0 0 0
1 0 0 0
1 0 0 0
1 0 0 0
1 0 0 0
1 0 0 0
1 0 0 0
1 0 0 0
1 0 0 0
1 0 0 0
1 0 0 0
1 0 0 0
1 0 0 0
1 0 0 0
1 0 0 0
1 0 0 0
1 0 0 0
1 0 0 0
1 0 0 0
1 0 0 0
1 0 0 0
1 0 0 0
1 0 0 0
1 0 0 0
1 0 0 0
1 0 0 0
1 0 0 0
1 0 0 0
1 0 0 0
1 0 0 0
1 0 0 0
1 0 0 0
1 0 0 0
1 0 0 0
1 0 0 0
1 0 0 0
1 0 0 0
1 0 0 0
1 0 0 0
1 0 0 0
1 0 0 0
1 0 0 0
1 0 0 0
1 0 0 0
1 0 0 0
1 0 0 0
1 0 0 0
1 0 0 0
1 0 0 0
1 0 0 0
1 0 0 0
1 0 0 0
1 0 0 0
1 0 0 0
1 0 0 0
1 0 0 0
1 0 0 0
1 0 0 0
1 0 0 0
1 0 0 0
1 0 0 0
1 0 0 0
1 0 0 0
1 0 0 0
1 0 0 0
1 0 0 0
1 0 0 0
1 0 0 0
1 0 0 0
1 0 0 0
1 0 0 0
1 0 0 0
1 0 0 0
1 0 0 0
1 0 0 0
1 0 0 0
1 0 0 0
1 0 0 0
1 0 0 0
1 0 0 0
1 0 0 0
1 0 0 0
1 0 0 0
1 0 0 0
1 0 0 0
1 0 0 0
1 0 0 0
1 0 0 0
1 0 0 0
1 0 0 0
1 0 0 0
1 0 0 0
1 0 0 0
1 0 0 0
1 0 0 0
1 0 0 0
1 0 0 0
1 0 0 0
1 0 0 0
1 0 0 0
1 0 0 0
1 0 0 0
1 0 0 0
1 0 0 0
1 0 0 0
1 0 0 0
1 0 0 0
1 0 0 0
1 0 0 0
1 0 0 0
1 0 0 0
1 0 0 0
1 0 0 0
1 0 0 0
1 0 0 0
1 0 0 0
1 0 0 0
1 0 0 0
1 0 0 0
1 0 0 0
1 0 0 0
1 0 0 0
1 0 0 0
1 0 0 0
1 0 0 0
1 0 0 0
1 0 0 0
1 0 0 0
1 0 0 0
1 0 0 0
1 0 0 0
1 0 0 0
1 0 0 0
1 0 0 0
1 0 0 0
1 0 0 0
1 0 0 0
1 0 0 0
1 0 0 0
1 0 0 0
1 0 0 0
1 0 0 0
1 0 0 0
1 0 0 0
1 0 0 0
1 0 0 0
1 0 0 0
1 0 0 0
1 0 0 0
1 0 0 0
1 0 0 0
1 0 0 0
1 0 0 0
1 0 0 0
1 0 0 0
1 0 0 0
1 0 0 0
1 0 0 0
1 0 0 0
1 0 0 0
1 0 0 0
1 0 0 0
1 0 0 0
1 0 0 0
1 0 0 0
1 0 0 0
1 0 0 0
1 0 0 0
1 0 0 0
1 0 0 0
1 0 0 0
1 0 0 0
1 0 0 0
1 0 0 0
1 0 0 0
1 0 0 0
1 0 0 0
1 0 0 0
1 0 0 0
1 0 0 0
1 0 0 0
1 0 0 0
1 0 0 0
1 0 0 0
1 0 0 0
1 0 0 0
1 0 0 0
1 0 0 0
1 0 0 0
1 0 0 0
1 0 0 0
1 0 0 0
1 0 0 0
1 0 0 0
1 0 0 0
1 0 0 0
1 0 0 0
1 0 0 0
1 0 0 0
1 0 0 0
1 0 0 0
1 0 0 0
1 0 0 0
1 0 0 0
1 0 0 0
1 0 0 0
1 0 0 0
1 0 0 0
1 0 0 0
1 0 0 0
1 0 0 0
1 0 0 0
1 0 0 0
1 0 0 0
1 0 0 0
1 0 0 0
1 0 0 0
1 0 0 0
1 0 0 0
1 0 0 0
1 0 0 0
1 0 0 0
1 0 0 0
1 0 0 0
1 0 0 0
1 0 0 0
1 0 0 0
1 0 0 0
1 0 0 0
1 0 0 0
1 0 0 0
1 0 0 0
1 0 0 0
1 0 0 0
1 0 0 0
1 0 0 0
1 0 0 0
1 0 0 0
1 0 0 0
1 0 0 0
1 0 0 0
1 0 0 0
1 0 0 0
1 0 0 0
1 0 0 0
1 0 0 0
1 0 0 0
1 0 0 0
1 0 0 0
1 0 0 0
1 0 0 0
1 0 0 0
1 0 0 0
1 0 0 0
1 0 0 0
128
1 0 0 0
1 0 0 0
1 0 0 0
1 0 0 0
1 0 0 0
1 0 0 0
1 0 0 0
1 0 0 0
1 0 0 0
1 0 0 0
1 0 0 0
1 0 0 0
1 0 0 0
1 0 0 0
1 0 0 0
1 0 0 0
1 0 0 0
1 0 0 0
1 0 0 0
1 0 0 0
1 0 0 0
1 0 0 0
1 0 0 0
1 0 0 0
1 0 0 0
1 0 0 0
1 0 0 0
1 0 0 0
1 0 0 0
1 0 0 0
1 0 0 0
1 0 0 0
1 0 0 0
1 0 0 0
1 0 0 0
1 0 0 0
1 0 0 0
1 0 0 0
1 0 0 0
1 0 0 0
1 0 0 0
1 0 0 0
1 0 0 0
1 0 0 0
1 0 0 0
1 0 0 0
1 0 0 0
1 0 0 0
1 0 0 0
1 0 0 0
1 0 0 0
1 0 0 0
1 0 0 0
1 0 0 0
1 0 0 0
1 0 0 0
1 0 0 0
1 0 0 0
1 0 0 0
1 0 0 0
1 0 0 0
1 0 0 0
1 0 0 0
1 0 0 0
1 0 0 0
1 0 0 0
1 0 0 0
1 0 0 0
1 0 0 0
1 0 0 0
1 0 0 0
1 0 0 0
1 0 0 0
1 0 0 0
1 0 0 0
1 0 0 0
1 0 0 0
1 0 0 0
1 0 0 0
1 0 0 0
1 0 0 0
1 0 0 0
1 0 0 0
1 0 0 0
1 0 0 0
1 0 0 0
1 0 0 0
1 0 0 0
1 0 0 0
1 0 0 0
1 0 0 0
1 0 0 0
1 0 0 0
1 0 0 0
1 0 0 0
1 0 0 0
1 0 0 0
1 0 0 0
1 0 0 0
1 0 0 0
1 0 0 0
1 0 0 0
1 0 0 0
1 0 0 0
1 0 0 0
1 0 0 0
1 0 0 0
1 0 0 0
1 0 0 0
1 0 0 0
1 0 0 0
1 0 0 0
1 0 0 0
1 0 0 0
1 0 0 0
1 0 0 0
1 0 0 0
1 0 0 0
1 0 0 0
1 0 0 0
1 0 0 0
1 0 0 0
1 0 0 0
1 0 0 0
1 0 0 0
1 0 0 0
1 0 0 0
1 0 0 0
1 0 0 0
1 0 0 0
1 0 0 0
1 0 0 0
1 0 0 0
1 0 0 0
1 0 0 0
1 0 0 0
1 0 0 0
1 0 0 0
1 0 0 0
1 0 0 0
1 0 0 0
1 0 0 0
1 0 0 0
1 0 0 0
1 0 0 0
1 0 0 0
1 0 0 0
1 0 0 0
1 0 0 0
1 0 0 0
1 0 0 0
1 0 0 0
1 0 0 0
1 0 0 0
1 0 0 0
1 0 0 0
1 0 0 0
1 0 0 0
1 0 0 0
1 0 0 0
1 0 0 0
1 0 0 0
1 0 0 0
1 0 0 0
1 0 0 0
1 0 0 0
1 0 0 0
1 0 0 0
1 0 0 0
1 0 0 0
1 0 0 0
1 0 0 0
1 0 0 0
1 0 0 0
1 0 0 0
1 0 0 0
1 0 0 0
1 0 0 0
1 0 0 0
1 0 0 0
1 0 0 0
1 0 0 0
1 0 0 0
1 0 0 0
1 0 0 0
1 0 0 0
1 0 0 0
1 0 0 0
1 0 0 0
1 0 0 0
1 0 0 0
1 0 0 0
1 0 0 0
1 0 0 0
1 0 0 0
1 0 0 0
1 0 0 0
1 0 0 0
1 0 0 0
1 0 0 0
1 0 0 0
1 0 0 0
1 0 0 0
1 0 0 0
1 0 0 0
1 0 0 0
1 0 0 0
1 0 0 0
1 0 0 0
1 0 0 0
1 0 0 0
1 0 0 0
1 0 0 0
1 0 0 0
1 0 0 0
1 0 0 0
1 0 0 0
1 0 0 0
1 0 0 0
1 0 0 0
1 0 0 0
1 0 0 0
1 0 0 0
1 0 0 0
1 0 0 0
1 0 0 0
1 0 0 0
1 0 0 0
1 0 0 0
1 0 0 0
1 0 0 0
1 0 0 0
1 0 0 0
1 0 0 0
1 0 0 0
1 0 0 0
1 0 0 0
1 0 0 0
1 0 0 0
1 0 0 0
1 0 0 0
1 0 0 0
1 0 0 0
1 0 0 0
1 0 0 0
1 0 0 0
1 0 0 0
1 0 0 0
1 0 0 0
1 0 0 0
1 0 0 0
1 0 0 0
1 0 0 0
1 0 0 0
1 0 0 0
1 0 0 0
1 0 0 0
1 0 0 0
1 0 0 0
1 0 0 0
1 0 0 0
1 0 0 0
1 0 0 0
1 0 0 0
1 0 0 0
1 0 0 0
1 0 0 0
1 0 0 0
1 0 0 0
1 0 0 0
1 0 0 0
1 0 0 0
1 0 0 0
1 0 0 0
2 0 0 0
2 0 0 0
2 0 0 0
2 0 0 0
2 0 0 0
2 0 0 0
2 0 0 0
2 0 0 0
2 0 0 0
2 0 0 0
2 0 0 0
2 0 0 0
2 0 0 0
2 0 0 0
2 0 0 0
2 0 0 0
2 0 0 0
2 0 0 0
2 0 0 0
2 0 0 0
2 0 0 0
2 0 0 0
2 0 0 0
2 0 0 0
2 0 0 0
2 0 0 0
2 0 0 0
2 0 0 0
2 0 0 0
2 0 0 0
2 0 0 0
2 0 0 0
2 0 0 0
2 0 0 0
2 0 0 0
2 0 0 0
2 0 0 0
2 0 0 0
2 0 0 0
2 0 0 0
2 0 0 0
2 0 0 0
2 0 0 0
2 0 0 0
2 0 0 0
2 0 0 0
2 0 0 0
2 0 0 0
2 0 0 0
2 0 0 0
2 0 0 0
2 0 0 0
2 0 0 0
2 0 0 0
2 0 0 0
2 0 0 0
2 0 0 0
2 0 0 0
2 0 0 0
2 0 0 0
2 0 0 0
2 0 0 0
2 0 0 0
2 0 0 0
2 0 0 0
2 0 0 0
2 0 0 0
2 0 0 0
2 0 0 0
2 0 0 0
2 0 0 0
2 0 0 0
2 0 0 0
2 0 0 0
2 0 0 0
2 0 0 0
2 0 0 0
2 0 0 0
2 0 0 0
2 0 0 0
2 0 0 0
2 0 0 0
2 0 0 0
2 0 0 0
2 0 0 0
2 0 0 0
2 0 0 0
2 0 0 0
3 0 0 0
3 0 0 0
3 0 0 0
3 0 0 0
3 0 0 0
3 0 0 0
3 0 0 0
3 0 0 0
3 0 0 0
3 0 0 0
3 0 0 0
3 0 0 0
3 0 0 0
3 0 0 0
3 0 0 0
3 0 0 0
3 0 0 0
3 0 0 0
3 0 0 0
3 0 0 0
3 0 0 0
3 0 0 0
3 0 0 0
3 0 0 0
3 0 0 0
3 0 0 0
3 0 0 0
3 0 0 0
3 0 0 0
3 0 0 0
3 0 0 0
3 0 0 0
3 0 0 0
3 0 0 0
3 0 0 0
3 0 0 0
3 0 0 0
3 0 0 0
3 0 0 0
3 0 0 0
3 0 0 0
3 0 0 0
3 0 0 0
3 0 0 0
3 0 0 0
3 0 0 0
3 0 0 0
3 0 0 0
3 0 0 0
3 0 0 0
3 0 0 0
3 0 0 0
3 0 0 0
3 0 0 0
3 0 0 0
3 0 0 0
3 0 0 0
3 0 0 0
3 0 0 0
3 0 0 0
3 0 0 0
3 0 0 0
3 0 0 0
3 0 0 0
3 0 0 0
3 0 0 0
3 0 0 0
3 0 0 0
3 0 0 0
3 0 0 0
3 0 0 0
3 0 0 0
3 0 0 0
3 0 0 0
3 0 0 0
3 0 0 0
3 0 0 0
3 0 0 0
3 0 0 0
3 0 0 0
3 0 0 0
3 0 0 0
3 0 0 0
3 0 0 0
3 0 0 0
3 0 0 0
3 0 0 0
3 0 0 0
512
4
FlyingBird
Bird
Bird_LW
Bird_RW
1024
4
-1
0
0
0
2048
4
-4.996552 0 -0.1856396 0
0.04037019 4.88034 -1.086578 0
0.1811969 -1.087327 -4.876975 0
3.326714E-05 0.0008643531 0.0007397556 1

-0.5201404 0 -0.01932505 0
0.004202532 0.5080428 -0.1131126 0
0.01886257 -0.1131906 -0.5076925 0
0.004338109 0.001612451 -0.0293802 1

0.492254 -0.168477 0.01486775 0
-0.1690147 -0.4883078 0.06252255 0
-0.006289287 -0.06395751 -0.5165166 0
-0.0020973 0.0066398 -0.01851262 1

-0.4729666 -0.2134836 0.04058208 0
-0.2170807 0.4685936 -0.06492697 0
-0.009905223 -0.075923 -0.5148369 0
-0.0020973 0.0066398 -0.01851262 1

4096
4
-0.1998621 0.001614808 0.007247874 0
0 0.1952136 -0.04349309 0
-0.007425583 -0.0434631 -0.195079 0
1.214196E-05 -0.0001366351 0.0001816631 1

-1.919907 0.0155121 0.06962424 0
0 1.875253 -0.4178016 0
-0.07133134 -0.4175135 -1.87396 0
0.006233038 -0.01535768 -0.05468569 1

1.816975 -0.6238558 -0.02321459 0
-0.6218707 -1.802409 -0.2360757 0
0.05487886 0.230779 -1.906531 0
0.008955791 0.01493155 -0.03377609 1

-1.745782 -0.8012739 -0.03656149 0
-0.7879964 1.729641 -0.2802419 0
0.1497939 -0.2396541 -1.900331 0
0.004343786 -0.01760161 -0.03339605 1

